{"title":"Gotti 2018 Movies 720p BluRay x264 5.1 with Sample ☻rDX☻","magnet":"magnet:?xt=urn:btih:7cc91887698c15ed2d76b9854edf495392cf0ffc&dn=Gotti+2018+Movies+720p+BluRay+x264+5.1+with+Sample+%E2%98%BBrDX%E2%98%BB&tr=udp%3A%2F%2Ftracker.leechers-paradise.org%3A6969&tr=udp%3A%2F%2Fzer0day.ch%3A1337&tr=udp%3A%2F%2Fopen.demonii.com%3A1337&tr=udp%3A%2F%2Ftracker.coppersurfer.tk%3A6969&tr=udp%3A%2F%2Fexodus.desync.com%3A6969","uploader":"basicssom","categoryP":"video","categoryS":"hd___movies","size":"1023439504","seeders":"0","leechers":"61","description":"----------------------------------------------------------------\r\nGotti 2018 Movies 720p BluRay x264 5.1 with Sample &#x263B;rDX&#x263B;\r\n\r\nSCREEN SHOTS &amp; POSTER:\r\n   <a href=\"\nhttp://iphonehosting.eu/2018/7/a/gadgets/index.html\" rel=\"nofollow\" target=\"_NEW\">\nhttp://iphonehosting.eu/2018/7/a/gadgets/index.html</a> <a href=\"\nhttp://iphonehosting.eu/2018/7/a/gadgets/1.html\" rel=\"nofollow\" target=\"_NEW\">\nhttp://iphonehosting.eu/2018/7/a/gadgets/1.html</a> <a href=\"\nhttp://iphonehosting.eu/2018/7/a/gadgets/2.html\" rel=\"nofollow\" target=\"_NEW\">\nhttp://iphonehosting.eu/2018/7/a/gadgets/2.html</a>   <a href=\"\nhttp://iphonehosting.eu/2018/7/a/gadgets/3.html\" rel=\"nofollow\" target=\"_NEW\">\nhttp://iphonehosting.eu/2018/7/a/gadgets/3.html</a>   <a href=\"\nhttp://iphonehosting.eu/2018/7/a/gadgets/4.html\" rel=\"nofollow\" target=\"_NEW\">\nhttp://iphonehosting.eu/2018/7/a/gadgets/4.html</a>   <a href=\"\nhttp://iphonehosting.eu/2018/7/a/gadgets/5.html\" rel=\"nofollow\" target=\"_NEW\">\nhttp://iphonehosting.eu/2018/7/a/gadgets/5.html</a>   <a href=\"\nhttp://iphonehosting.eu/2018/7/a/gadgets/6.html\" rel=\"nofollow\" target=\"_NEW\">\nhttp://iphonehosting.eu/2018/7/a/gadgets/6.html</a>   <a href=\"\nhttp://iphonehosting.eu/2018/7/a/gadgets/7.html\" rel=\"nofollow\" target=\"_NEW\">\nhttp://iphonehosting.eu/2018/7/a/gadgets/7.html</a>   <a href=\"\nhttp://iphonehosting.eu/2018/7/a/gadgets/8.html\" rel=\"nofollow\" target=\"_NEW\">\nhttp://iphonehosting.eu/2018/7/a/gadgets/8.html</a>   <a href=\"\nhttp://iphonehosting.eu/2018/7/a/gadgets/9.html\" rel=\"nofollow\" target=\"_NEW\">\nhttp://iphonehosting.eu/2018/7/a/gadgets/9.html</a>   <a href=\"\nhttp://iphonehosting.eu/2018/7/a/gadgets/10.html\" rel=\"nofollow\" target=\"_NEW\">\nhttp://iphonehosting.eu/2018/7/a/gadgets/10.html</a>\r\n\r\nFile size                                : 967 MiB\r\nDuration                                 : 1 h 49 min\r\nOverall bit rate                         : 1 234 kb/s\r\nMovie name                               : Gotti 2018 Movies 720p BluRay x264 5.1 &#x263B;rDX&#x263B;\r\n\r\nVideo\r\nID                                       : 2\r\nFormat                                   : AVC\r\nFormat/Info                              : Advanced Video Codec\r\nFormat profile                           : High@L4\r\nFormat settings, CABAC                   : Yes\r\nFormat settings, ReFrames                : 4 frames\r\nCodec ID                                 : V_MPEG4/ISO/AVC\r\nDuration                                 : 1 h 49 min\r\nBit rate                                 : 913 kb/s\r\nWidth                                    : 1 280 pixels\r\nHeight                                   : 536 pixels\r\nDisplay aspect ratio                     : 2.40:1\r\nFrame rate mode                          : Constant\r\nFrame rate                               : 23.976 (24000/1001) FPS\r\nColor space                              : YUV\r\nChroma subsampling                       : 4:2:0\r\nBit depth                                : 8 bits\r\nScan type                                : Progressive\r\nBits/(Pixel*Frame)                       : 0.056\r\nStream size                              : 697 MiB (72%)\r\nTitle                                    : &#x263B;rDX&#x263B;\r\nWriting library                          : x264\r\n\r\nAudio\r\nID                                       : 1\r\nFormat                                   : AC-3\r\nFormat/Info                              : Audio Coding 3\r\nMode extension                           : CM (complete main)\r\nFormat settings, Endianness              : Big\r\nCodec ID                                 : A_AC3\r\nDuration                                 : 1 h 49 min\r\nBit rate mode                            : Constant\r\nBit rate                                 : 320 kb/s\r\nChannel(s)                               : 6 channels\r\nChannel positions                        : Front: L C R, Side: L R, LFE\r\nSampling rate                            : 44.1 kHz\r\nFrame rate                               : 28.711 FPS (1536 spf)\r\nBit depth                                : 16 bits\r\nCompression mode                         : Lossy\r\nDelay relative to video                  : -21 ms\r\nStream size                              : 251 MiB (26%)\r\nTitle                                    : &#x263B;rDX&#x263B;\r\nDefault                                  : Yes\r\nForced                                   : No","last_updated":"2018-07-22T12:12:13.805Z","parsed":{"xt":"urn:btih:7cc91887698c15ed2d76b9854edf495392cf0ffc","dn":"Gotti 2018 Movies 720p BluRay x264 5.1 with Sample ☻rDX☻","tr":["udp://exodus.desync.com:6969","udp://open.demonii.com:1337","udp://tracker.coppersurfer.tk:6969","udp://tracker.leechers-paradise.org:6969","udp://zer0day.ch:1337"],"infoHash":"7cc91887698c15ed2d76b9854edf495392cf0ffc","infoHashBuffer":{"type":"Buffer","data":[124,201,24,135,105,140,21,237,45,118,185,133,78,223,73,83,146,207,15,252]},"name":"Gotti 2018 Movies 720p BluRay x264 5.1 with Sample ☻rDX☻","announce":["udp://exodus.desync.com:6969","udp://open.demonii.com:1337","udp://tracker.coppersurfer.tk:6969","udp://tracker.leechers-paradise.org:6969","udp://zer0day.ch:1337"],"urlList":[]}}